<?xml version="1.0" encoding="UTF-8"?>
<svg version="1.1" viewBox="0 0 1512 1824" width="1280" height="1280" xmlns="http://www.w3.org/2000/svg">
<path transform="translate(0)" d="m0 0h1512v1824h-1512z" fill="#FFFFFE"/>
<path transform="translate(329,908)" d="m0 0h888l9 2 9 5 6 5 7 10 3 7 1 683-1 18-4 10-11 12-10 6-9 2h-891l-11-4-11-7-8-11-3-8-1-6v-690l2-9 6-10 7-7 8-5 5-2z" fill="#728591"/>
<path transform="translate(858,1048)" d="m0 0 57 10 13 4 9 7 12 11 13 12 18 18 8 7 36 36 8 7 39 39-2 4-16 15-45 45-8 7-25 25-7-6-8-7-13-13-8-7-9-9-2-1 1 5v205l-1 66-308 1-1-1-1-50v-230l-15 14-13 12-17 16-3 2-24-24-8-7-32-32-8-7-20-20-5-4 1-4 11-11 8-7 7-7 8-7 8-8h2v-2l8-7 16-15 10-9 15-14 13-12 15-14 13-12 11-8 16-4 46-8h8l4 19 6 16 9 13 10 10 15 9 14 6 12 3 7 1h14l15-3 16-6 12-7 9-7 8-9 7-11 6-15 4-19z" fill="#FFFFFE"/>
<path transform="translate(455,508)" d="m0 0h640l11 2 10 6 8 8 5 8 2 6 1 160-1 19-4 10-7 9-7 6-8 4-9 2h-648l-13-4-9-6-8-9-4-8-2-11v-166l2-10 5-9 7-8 10-6 6-2z" fill="#728591"/>
<path transform="translate(458,188)" d="m0 0h630l13 3 12 7 7 7 7 11 4 11 1 4v14l-4 13-7 11-3 4h-2v2l-10 7-12 5-7 1h-632l-13-4-11-7-7-6-9-14-3-11v-16l4-13 6-10 10-10 14-7z" fill="#728591"/>
<path transform="translate(668,328)" d="m0 0h209l12 3 12 7 8 8 8 14 3 11v14l-4 13-7 11-6 7-10 7-11 4-6 1h-210l-10-3-11-6-9-8-9-14-3-11v-16l4-13 6-10 6-7 11-7 10-4z" fill="#728591"/>
<path transform="translate(626,585)" d="m0 0h291l9 2 10 5 9 9 6 12 1 5v13l-4 12-8 11-10 7-11 3-18 1h-275l-10-3-10-6-7-8-6-12-1-4v-14l3-10 6-9 7-7 9-5z" fill="#FFFFFE"/>
</svg>
