<?xml version="1.0" encoding="UTF-8"?>
<svg version="1.1" viewBox="0 0 1452 1112" width="1280" height="1280" xmlns="http://www.w3.org/2000/svg">
<path transform="translate(0)" d="m0 0h1452v1112h-1452z" fill="#FEFEFE"/>
<path transform="translate(734,188)" d="m0 0h610l13 3 10 5 9 7 9 10 7 12 3 10 1 650-1 16-4 12-7 11-7 8-12 9-11 5-10 2h-616l-12-3-12-6-10-8-8-9-8-16-2-13v-653l2-11 7-14 11-12 7-6 11-6 7-2z" fill="#738692"/>
<path transform="translate(957,369)" d="m0 0h8l4 17 5 12 6 10 11 11 13 8 11 5 12 3h22l15-4 17-9 12-11 7-9 6-12 4-13 1-8 13 1 37 6 13 4 14 12 9 9 8 7 8 8 8 7 15 15 8 7 36 36 8 7 10 10-2 4-20 20-8 7-9 9-8 7-11 11-8 7-17 17-4-1-7-7-8-7-8-8-8-7-7-6 1 237-1 1-268 1-2-2v-184l1-57-8 7-16 15-17 17-8-6-20-20-8-7-25-25-8-7-17-17 1-4 10-9 8-7 17-16 16-15 11-10 8-7 17-16 16-15 11-10 11-8 13-4z" fill="#FEFEFE"/>
<path transform="translate(73,568)" d="m0 0h447l12 3 9 6 7 7 5 8 2 6 1 24v106l-2 13-5 9-9 10-9 5-5 2-7 1h-447l-13-4-10-7-7-8-4-8-2-11v-127l2-9 6-11 9-8 10-5z" fill="#738692"/>
<path transform="translate(73,288)" d="m0 0h448l12 3 11 8 6 8 4 8 2 8v11l-4 12-7 9-9 8-9 4-6 1h-452l-11-4-8-6-7-7-6-12-1-4v-14l5-14 5-7 11-8 8-3z" fill="#738692"/>
<path transform="translate(69,408)" d="m0 0h213l13 4 9 7 6 8 4 8 2 7v12l-4 12-7 9-9 8-9 4-6 1h-212l-11-4-8-6-7-7-6-12-1-4v-13l4-13 8-11 11-7z" fill="#738692"/>
<path transform="translate(171,638)" d="m0 0h250l9 3 8 6 6 9 2 6v12l-6 12-4 5-8 5-12 2h-244l-10-3-8-6-6-9-2-6v-12l3-8 6-8 9-6z" fill="#FEFEFE"/>
</svg>
