<?xml version="1.0" encoding="UTF-8"?>
<svg version="1.1" viewBox="0 0 2048 1168" width="1280" height="1280" xmlns="http://www.w3.org/2000/svg">
<path transform="translate(0)" d="m0 0h2048v1168h-2048z" fill="#748690"/>
<path transform="translate(0)" d="m0 0h2048v1168h-2048zm847 18-771 2-12 5-11 6-11 8-10 10-11 15-5 10-3 12-2 16v961l3 22 7 17 12 16 8 8 11 8 14 8 22 6h920l15-4 19-10 13-11 7-8 8-11 7-14 4-15v-986l-5-16-5-10-7-10-9-10-9-8-11-7-16-7-18-3z" fill="#fff"/>
<path transform="translate(438,285)" d="m0 0 3 1 7 24 6 17 8 14 9 10 4 5 15 11 16 9 14 5 13 3 9 1h18l16-3 15-5 19-10 13-10 10-10 10-15 6-12 5-15 3-15 2-4 12 1 45 7 25 5 10 4 11 8 11 10 8 7 8 8 8 7 17 16 25 25 11 9 40 40 11 9 13 13 7 8 16 16-3 6-9 10-27 27-11 9-22 22-11 9-19 19-8 7-13 13h-6l-6-4-25-25-8-7-16-16h-1v353l-7 1-38 1h-357l-1-1v-359l-8 7-17 16-7 6-6 7-8 7-9 8-3 5-7-2-18-18v-2l-4-2-17-16-32-32-8-7-10-9-25-25-10-8 1-5 9-10 12-11 8-7 12-11 13-12 8-8 8-7 9-9 8-7 12-11 11-9 10-10 8-7 9-9 8-7 10-10 8-7 10-9 11-8 11-5 44-9z" fill="#fff"/>
<path transform="translate(1339,583)" d="m0 0 648 1 15 5 11 8 9 9 9 14 2 5v213l-9 17-12 13-11 7-9 4-10 2h-667l-17-5-12-7-10-9-8-11-4-8-3-18v-186l3-15 7-13 11-12 10-7 11-5 6-1z" fill="#748690"/>
<path transform="translate(1326,167)" d="m0 0h654l13 2 14 6 10 9 7 8 9 19 2 8v15l-3 12-9 15-11 12-10 7-13 5-7 1h-668l-17-5-10-6-12-11-7-10-5-11-2-7v-18l4-15 8-13 10-11 14-8 9-3z" fill="#748690"/>
<path transform="translate(1311,346)" d="m0 0h315l14 3 13 7 13 13 8 16 4 13v13l-3 13-7 13-11 12-8 7-12 6-8 2h-318l-12-4-11-6-10-8-7-8-6-11-4-13v-17l6-19 8-12 10-10 10-6z" fill="#748690"/>
<path transform="translate(1460,687)" d="m0 0h377l13 5 10 9 6 7 5 11 1 7v13l-3 9-6 12-9 9-8 5-12 3h-374l-12-4-13-11-6-10-4-8v-24l4-10 9-11 8-7 9-4z" fill="#fff"/>
</svg>
