<?xml version="1.0" encoding="UTF-8"?>
<svg version="1.1" viewBox="0 0 1420 1740" width="1280" height="1280" xmlns="http://www.w3.org/2000/svg">
<path transform="translate(0)" d="m0 0h1420v1740h-1420z" fill="#FDFDFD"/>
<path transform="translate(1132,108)" d="m0 0 14 1 10 4 10 9 7 10 2 6v699l-4 10-7 9-9 7-9 4-7 1h-887l-13-4-9-6-8-9-4-8-2-13v-681l2-13 5-9 6-7 11-7 5-2z" fill="#728591"/>
<path transform="translate(609,248)" d="m0 0 4 1 6 25 8 16 8 10 10 9 14 8 16 6 17 3h9l17-3 16-6 14-8 10-9 7-8 8-14 5-14 2-14 1-2 14 2 46 8 12 4 13 11 17 16 13 13 8 7 28 28 8 7 49 49 3 2v2l3 1-1 5-8 7-26 26-8 7-32 32-8 7-13 13-4-2-16-16-8-7-13-13-5-4v275l-26 1h-284l-1-2v-259l1-20-8 7-12 11-15 14-12 12-4-2-17-17-8-7-25-25-8-7-25-25-8-7-5-5 2-4 16-15 8-7 7-7 8-7 9-9 8-7 16-15 10-9 15-14 13-12 7-7 8-7 11-10 9-6 15-4z" fill="#FDFDFD"/>
<path transform="translate(367,1349)" d="m0 0h658l10 4 8 6 6 7 5 10 1 3v176l-3 10-8 11-11 8-8 3-8 1h-643l-12-3-9-5-9-8-6-12-2-18v-152l1-12 4-10 6-8 11-8z" fill="#728591"/>
<path transform="translate(394,1028)" d="m0 0h614l13 2 14 7 8 7 7 11 5 12 1 14-2 11-4 9-6 9-8 8-11 6-8 3-9 1h-626l-13-3-13-7-10-10-7-12-3-11v-13l3-12 6-11 9-10 11-7 9-3z" fill="#728591"/>
<path transform="translate(548,1425)" d="m0 0h296l11 4 9 6 6 7 5 10 1 4v16l-4 11-6 9-8 7-8 4-14 2h-288l-11-4-9-7-6-7-5-10-1-3v-19l4-10 8-10 9-6z" fill="#FDFDFD"/>
<path transform="translate(601,1168)" d="m0 0h195l13 2 14 7 9 8 8 14 3 8 1 7v9l-3 12-5 10-11 12-11 7-9 3-8 1h-203l-11-2-12-6-9-7-9-13-4-10-1-5v-13l3-12 8-14 8-8 10-6 9-3z" fill="#728591"/>
</svg>
