<?xml version="1.0" encoding="UTF-8"?>
<svg version="1.1" viewBox="0 0 1180 1284" width="1280" height="1280" xmlns="http://www.w3.org/2000/svg">
<path transform="translate(0)" d="m0 0h1180v1284h-1180z" fill="#FEFEFE"/>
<path transform="translate(213,124)" d="m0 0h685l10 4 5 4 5 8 1 3v200l-5 10-7 6-7 3h-95l-8-3-9-8-3-6-1-6-1-80h-127v456l148 39 15 5 14 7 12 10 10 13 6 12 4 13 4 32 4 12 3 6v2l9-3h7l10 4 10 9 21 21 6 10 1 9-2 7-1 5 69 69 6 9 1 4v9l-3 7-7 8-11 12-7 6-6 7-6 5-6 7h-2l-2 4-17 17-9 7-6 3h-11l-10-5-71-71-4 1-7 2-9-1-7-3-8-7-24-24-5-9-1-11 1-9-11-5-16-3-24-3-15-5-15-9-10-9-8-11-7-14-5-16-11-42-15-58-10-40-2-13-1-12v-471l2-11 6-8 9-6 3-1h147l9 3 9 8 4 9v84l75-1v-177l-664 1v176h74l1-83 5-10 8-7 6-3h148l8 3 7 5 6 10 1 6v85l-1 15-4 6-7 4-9-1-6-4-3-6-1-92h-128l-1 84-3 7-7 8-10 4h-94l-8-3-8-7-4-8-1-16v-169l1-17 5-9 9-7z"/>
<path transform="translate(470,440)" d="m0 0h7l7 4 4 6 1 5v345l-1 188-5 8-5 5-12 10-16 12-14 11-10 6-4 1-61 1-1 76h74l5 3 5 6 1 7-3 7-5 5-8 2h-74l-9-2-8-5-6-7-2-8v-94l3-8 7-8 8-4 7-1 62-1 14-11 26-20 1-2 1-527 5-7z"/>
<path transform="translate(689,755)" d="m0 0 16 4 73 19 26 7 14 7 9 9 5 8 4 13 4 31 3 11 8 16 4 6-7 8-50 50-7-4-14-7-13-4-33-4-9-3-9-5-7-6-7-11-4-10-24-91-5-18 1-4 5 4 7 8 38 38-4 16v14l4 14 7 11 9 8 12 6 7 2h18l12-4 11-7 7-7 7-13 2-9v-16l-4-13-7-11-8-7-14-7-10-2h-11l-12 3-5 2-50-50z" fill="#FEFEFE"/>
<path transform="translate(532,1118)" d="m0 0h238l7 2 5 6 2 9-4 8-6 4-5 1h-233l-7-2-6-7-1-2v-8l3-6 5-4z"/>
<path transform="translate(913,950)" d="m0 0 4 1 3 2v2l4 2v2l4 2 52 52-2 4-48 48-3 4-5-2-62-62 6-7 46-46z" fill="#FEFEFE"/>
<path transform="translate(887,896)" d="m0 0 4 1 16 16-1 4-8 7-5 6h-2v2h-2l-2 4-60 60-4-1-17-17 6-7z" fill="#FEFEFE"/>
<path transform="translate(758,831)" d="m0 0 10 1 6 4 5 6 1 3v11l-6 9-7 4-6 1-8-2-6-4-4-6-1-3v-10l5-8 7-5z" fill="#FEFEFE"/>
</svg>
